<?xml version="1.0" standalone="no"?>
<!DOCTYPE svg PUBLIC "-//W3C//DTD SVG 20010904//EN"
 "http://www.w3.org/TR/2001/REC-SVG-20010904/DTD/svg10.dtd">
<svg version="1.0" xmlns="http://www.w3.org/2000/svg"
 width="300.000000pt" height="300.000000pt" viewBox="0 0 300.000000 300.000000"
 preserveAspectRatio="xMidYMid meet">
<metadata>
Created by potrace 1.14, written by Peter Selinger 2001-2017
</metadata>
<g transform="translate(0.000000,300.000000) scale(0.100000,-0.100000)"
fill="#000000" stroke="none">
<path d="M1444 2903 c-32 -37 -91 -103 -130 -147 l-71 -79 48 -94 c45 -88 66
-154 75 -233 l3 -35 -56 63 c-31 35 -87 85 -125 112 l-69 49 -54 -57 c-75 -80
-115 -126 -115 -133 0 -3 24 -16 52 -30 74 -34 177 -138 216 -219 72 -150 95
-243 95 -385 0 -273 -137 -466 -331 -465 -92 1 -226 64 -305 144 -46 47 -87
95 -87 102 0 3 -13 24 -28 47 -42 63 -80 155 -97 238 -15 71 -21 227 -10 279
21 107 30 140 51 200 34 99 65 166 112 244 23 37 42 72 42 77 0 5 4 9 8 9 4 0
16 14 26 31 10 17 32 46 48 65 50 56 26 46 -86 -39 -268 -202 -460 -491 -540
-817 -136 -557 70 -1140 529 -1495 244 -188 522 -284 840 -290 132 -2 179 1
310 20 75 11 221 52 240 67 5 4 15 8 22 8 21 0 173 75 243 121 284 182 494
479 583 824 23 89 32 142 52 280 6 43 7 213 1 255 -2 14 -7 48 -10 75 -22 158
-84 355 -154 486 -98 181 -284 379 -488 520 -50 34 -49 21 2 -36 105 -119 233
-366 258 -499 2 -12 7 -37 11 -57 20 -108 7 -277 -31 -393 -50 -152 -167 -319
-269 -384 -94 -61 -137 -76 -220 -78 -91 -3 -143 16 -206 74 -194 177 -170
657 43 890 39 43 125 106 158 117 20 6 27 30 13 37 -5 2 -39 38 -76 81 -38 42
-73 77 -79 77 -22 0 -138 -92 -193 -152 l-57 -63 5 46 c9 71 34 147 77 234 22
44 40 81 40 82 0 2 -203 236 -245 281 -9 10 -24 -1 -71 -55z"/>
</g>
</svg>
